<svg xmlns="http://www.w3.org/2000/svg" viewBox="0 0 1085 1085"><defs><style>.cls-1{fill:#fff;}</style></defs><g id="_05-FULL-WHITE" data-name="05-FULL-WHITE"><g id="Facebook"><path class="cls-1" d="M555.17,9.7C255.52,9.7,12.6,252.62,12.6,552.27S255.52,1094.7,555.17,1094.7,1097.6,851.78,1097.6,552.27,854.67,9.7,555.17,9.7ZM819.09,781.61c0,16-7.85,33-23.72,33H661.91v-200h67.87l10.29-85.74H661.91V477.68c0-22.87,6.14-34.57,39-34.57h46.73V368.36c-14.29-1-36.44-3.14-65.45-3.14-60.3,0-106,36.87-106,104.6v59H504.73v85.74h71.44v200H328.68c-16,0-24-17-24-33V314.92c0-16,8-29,24-29H795.37c15.87,0,23.72,13,23.72,29Z" transform="translate(-12.6 -9.7)"/></g></g></svg>