<svg xmlns="http://www.w3.org/2000/svg" viewBox="0 0 1095 1095"><defs><style>.cls-1{fill:#fff;}</style></defs><g id="_05-FULL-WHITE" data-name="05-FULL-WHITE"><g id="Instagram"><path class="cls-1" d="M737.35,546.4a101.67,101.67,0,0,1,203.34,0c0,56-45.57,101.38-101.81,101.38A101.46,101.46,0,0,1,737.35,546.4Z" transform="translate(-277.03 0.3)"/><rect class="cls-1" x="669.72" y="344.23" width="86.53" height="86.53" rx="16.58"/><path class="cls-1" d="M987,502.56h60.71V744c0,9.23-2,18.17-11.1,18.17H640c-9.09,0-10.53-8.94-10.53-18.17V502.56h60.14c-8.66,0-11.54,32.31-11.54,47,0,88.4,72.25,158.92,160.8,158.92,88.83,0,160.94-69.73,160.94-158.13C999.82,535.66,997.65,502.56,987,502.56Z" transform="translate(-277.03 0.3)"/><path class="cls-1" d="M824.6-.3C522.19-.3,277,244.86,277,547.27S522.19,1094.7,824.6,1094.7,1372,849.54,1372,547.27,1126.87-.3,824.6-.3Zm280.78,747.73c0,34.62-30.86,58-65.47,58H636.83c-34.75,0-65-23.36-65-58V344.07c0-34.61,30.29-57.82,65-57.82h403.08c34.61,0,65.47,23.21,65.47,57.82Z" transform="translate(-277.03 0.3)"/></g></g></svg>