<svg xmlns="http://www.w3.org/2000/svg" viewBox="0 0 1083 1083"><defs><style>.cls-1{fill:#fff;}</style></defs><g id="_05-FULL-WHITE" data-name="05-FULL-WHITE"><g id="Twitter"><path class="cls-1" d="M553.18,13.7C254.08,13.7,11.6,256.17,11.6,555.27S254.08,1096.7,553.18,1096.7,1094.6,854.22,1094.6,555.27,852.13,13.7,553.18,13.7ZM759,440.45c.15,4.85.29,9.7.29,14.55,0,148.48-110.26,319.78-311.79,319.78a305.34,305.34,0,0,1-168-50.49,226.66,226.66,0,0,0,26.1,1.57,217,217,0,0,0,136.21-48.07c-48.07-1-88.43-33.38-102.41-78a109.35,109.35,0,0,0,20.54,2,115.18,115.18,0,0,0,30.1-4C339.8,587.5,303.14,542,303.14,487.52v-1.29a102.79,102.79,0,0,0,48.64,14,114.54,114.54,0,0,1-34.8-150c54.06,68,134.64,112.68,225.78,117.39A109,109,0,0,1,539.84,442c0-62,49-112.4,109.51-112.4a108.14,108.14,0,0,1,80,35.38,213.64,213.64,0,0,0,69.6-27.24,111.64,111.64,0,0,1-48.21,62.18,211.39,211.39,0,0,0,62.89-17.68A223.29,223.29,0,0,1,759,440.45Z" transform="translate(-11.6 -13.7)"/></g></g></svg>